<svg width="38" height="40" viewBox="0 0 38 40" fill="none" xmlns="http://www.w3.org/2000/svg">
<path d="M37.75 0.25V4.41667C37.75 24.4729 26.5562 33.5833 12.75 33.5833H4.92292C4.58333 35.4833 4.41667 37.5563 4.41667 39.8333H0.25C0.25 36.9938 0.491667 34.4167 0.970833 32.0583C0.491667 29.3625 0.25 25.7042 0.25 21.0833C0.25 9.57708 9.57708 0.25 21.0833 0.25C25.25 0.25 29.4167 2.33333 37.75 0.25ZM21.0833 4.41667C11.8792 4.41667 4.41667 11.8792 4.41667 21.0833C4.41667 21.8375 4.42292 22.5646 4.4375 23.2625C7.05 19.1417 10.8771 15.8854 15.8833 13.025L17.95 16.6417C12.0021 20.0417 8.05625 23.9042 6.03333 29.4167H12.75C25.2812 29.4167 33.3146 21.1396 33.5771 5.225C30.7187 5.50208 28.0625 5.325 24.7854 4.83333C22.3896 4.47292 21.9187 4.41667 21.0833 4.41667Z" fill="white"/>
</svg>
